<?xml version="1.0" ?><!DOCTYPE svg  PUBLIC '-//W3C//DTD SVG 1.1//EN'  'http://www.w3.org/Graphics/SVG/1.1/DTD/svg11.dtd'><svg enable-background="new 0 0 512 512" id="Layer_1" version="1.1" viewBox="0 0 512 512" xml:space="preserve" xmlns="http://www.w3.org/2000/svg" xmlns:xlink="http://www.w3.org/1999/xlink"><circle cx="256" cy="256" fill="#0072C6" id="ellipse" r="256"/><path d="M284.1,96L97.7,132.1v244.9L284.1,416V96z M295.8,163.8v62.6l21.9,13.8c0.6,0.2,1.8,0.2,2.4,0  l94.2-63.5c0-7.5-7-12.9-10.9-12.9H295.8z M193,200c12.3,0,22.2,5,29.8,15.1c7.6,10.1,11.4,23.4,11.4,39.8  c0,16.9-3.9,30.6-11.8,40.9s-18.1,15.6-30.8,15.6c-12.3,0-22.4-5-30.2-15.1c-7.8-10-11.7-23.1-11.7-39.3c0-17,4-30.8,11.9-41.3  C169.5,205.3,180,200,193,200z M414.3,202c0,0-95.6,63.6-92.3,61.5c0,0-3.4,2.1-6.2,0l-20-13.7v85.1h101.4c9,0,17.1-5.3,17.1-17.8  V202z M192.4,220.9c-6.8,0-12.2,3.2-16.2,9.6c-4,6.4-6,14.8-6,25.3c0,10.7,2,19.1,6,25.3c4,6.2,9.2,9.3,15.7,9.3  c6.7,0,12-3,15.9-9.1c3.9-6,5.9-14.4,5.9-25.1c0-11.2-1.9-19.8-5.7-26.1C204.3,224,199.1,220.9,192.4,220.9L192.4,220.9z" fill="#FFFFFF" id="logo"/></svg>